<mxfile host="app.diagrams.net" modified="2023-09-15T16:30:58.373Z" agent="Mozilla/5.0 (Windows NT 10.0; Win64; x64) AppleWebKit/537.36 (KHTML, like Gecko) Chrome/116.0.0.0 Safari/537.36" etag="glTOK9fR8DIlU_c-G3ko" version="21.7.5" type="github">
  <diagram name="Page-1" id="yc520S285fIfnYpyq5dQ">
    <mxGraphModel dx="733" dy="398" grid="1" gridSize="10" guides="1" tooltips="1" connect="1" arrows="1" fold="1" page="1" pageScale="1" pageWidth="1200" pageHeight="1169" math="0" shadow="0">
      <root>
        <mxCell id="0" />
        <mxCell id="1" parent="0" />
        <mxCell id="yyUsBIvHMFdUN7dhFQf3-2" style="edgeStyle=orthogonalEdgeStyle;rounded=0;orthogonalLoop=1;jettySize=auto;html=1;entryX=0.5;entryY=0;entryDx=0;entryDy=0;" edge="1" parent="1" source="NAVXKliJI1FKaE1Nxbga-1" target="yyUsBIvHMFdUN7dhFQf3-1">
          <mxGeometry relative="1" as="geometry" />
        </mxCell>
        <mxCell id="NAVXKliJI1FKaE1Nxbga-1" value="Inicio" style="ellipse;whiteSpace=wrap;html=1;fontSize=20;fontStyle=1" parent="1" vertex="1">
          <mxGeometry x="520" y="30" width="160" height="80" as="geometry" />
        </mxCell>
        <mxCell id="yyUsBIvHMFdUN7dhFQf3-10" style="edgeStyle=orthogonalEdgeStyle;rounded=0;orthogonalLoop=1;jettySize=auto;html=1;entryX=0.5;entryY=0;entryDx=0;entryDy=0;" edge="1" parent="1" source="yyUsBIvHMFdUN7dhFQf3-1" target="yyUsBIvHMFdUN7dhFQf3-3">
          <mxGeometry relative="1" as="geometry" />
        </mxCell>
        <mxCell id="yyUsBIvHMFdUN7dhFQf3-1" value="El usuario está autenticado?" style="rhombus;whiteSpace=wrap;html=1;" vertex="1" parent="1">
          <mxGeometry x="495" y="160" width="210" height="80" as="geometry" />
        </mxCell>
        <mxCell id="yyUsBIvHMFdUN7dhFQf3-8" style="edgeStyle=orthogonalEdgeStyle;rounded=0;orthogonalLoop=1;jettySize=auto;html=1;entryX=0.5;entryY=0;entryDx=0;entryDy=0;entryPerimeter=0;" edge="1" parent="1" source="yyUsBIvHMFdUN7dhFQf3-3" target="yyUsBIvHMFdUN7dhFQf3-7">
          <mxGeometry relative="1" as="geometry" />
        </mxCell>
        <mxCell id="yyUsBIvHMFdUN7dhFQf3-3" value="El usuario está registrado?" style="rhombus;whiteSpace=wrap;html=1;" vertex="1" parent="1">
          <mxGeometry x="710" y="240" width="180" height="80" as="geometry" />
        </mxCell>
        <mxCell id="yyUsBIvHMFdUN7dhFQf3-11" value="" style="edgeStyle=orthogonalEdgeStyle;rounded=0;orthogonalLoop=1;jettySize=auto;html=1;" edge="1" parent="1" source="yyUsBIvHMFdUN7dhFQf3-7" target="yyUsBIvHMFdUN7dhFQf3-9">
          <mxGeometry relative="1" as="geometry" />
        </mxCell>
        <mxCell id="yyUsBIvHMFdUN7dhFQf3-7" value="Formulario de Registro" style="strokeWidth=2;html=1;shape=mxgraph.flowchart.annotation_1;align=left;pointerEvents=1;" vertex="1" parent="1">
          <mxGeometry x="930" y="320" width="50" height="30" as="geometry" />
        </mxCell>
        <mxCell id="yyUsBIvHMFdUN7dhFQf3-14" style="edgeStyle=orthogonalEdgeStyle;rounded=0;orthogonalLoop=1;jettySize=auto;html=1;" edge="1" parent="1" source="yyUsBIvHMFdUN7dhFQf3-9" target="yyUsBIvHMFdUN7dhFQf3-13">
          <mxGeometry relative="1" as="geometry" />
        </mxCell>
        <mxCell id="yyUsBIvHMFdUN7dhFQf3-9" value="Completo registro?" style="rhombus;whiteSpace=wrap;html=1;" vertex="1" parent="1">
          <mxGeometry x="887.5" y="390" width="135" height="80" as="geometry" />
        </mxCell>
        <mxCell id="yyUsBIvHMFdUN7dhFQf3-12" value="No" style="text;html=1;strokeColor=none;fillColor=none;align=center;verticalAlign=middle;whiteSpace=wrap;rounded=0;" vertex="1" parent="1">
          <mxGeometry x="930" y="255" width="30" height="30" as="geometry" />
        </mxCell>
        <mxCell id="yyUsBIvHMFdUN7dhFQf3-15" style="edgeStyle=orthogonalEdgeStyle;rounded=0;orthogonalLoop=1;jettySize=auto;html=1;" edge="1" parent="1" source="yyUsBIvHMFdUN7dhFQf3-13">
          <mxGeometry relative="1" as="geometry">
            <mxPoint x="960" y="300" as="targetPoint" />
            <Array as="points">
              <mxPoint x="1145" y="300" />
            </Array>
          </mxGeometry>
        </mxCell>
        <mxCell id="yyUsBIvHMFdUN7dhFQf3-13" value="Mensaje de Error" style="shape=document;whiteSpace=wrap;html=1;boundedLbl=1;" vertex="1" parent="1">
          <mxGeometry x="1110" y="340" width="70" height="40" as="geometry" />
        </mxCell>
        <mxCell id="yyUsBIvHMFdUN7dhFQf3-16" value="No" style="text;html=1;strokeColor=none;fillColor=none;align=center;verticalAlign=middle;whiteSpace=wrap;rounded=0;" vertex="1" parent="1">
          <mxGeometry x="1100" y="400" width="30" height="30" as="geometry" />
        </mxCell>
      </root>
    </mxGraphModel>
  </diagram>
</mxfile>
